<mxfile host="65bd71144e">
    <diagram id="Jl4-TxYifM9YepXuttMy" name="Page-1">
        <mxGraphModel dx="1309" dy="681" grid="1" gridSize="10" guides="1" tooltips="1" connect="1" arrows="1" fold="1" page="1" pageScale="1" pageWidth="850" pageHeight="1100" math="0" shadow="0">
            <root>
                <mxCell id="0"/>
                <mxCell id="1" parent="0"/>
                <mxCell id="2" value="" style="whiteSpace=wrap;html=1;" vertex="1" parent="1">
                    <mxGeometry x="70" y="30" width="700" height="620" as="geometry"/>
                </mxCell>
                <mxCell id="3" value="&lt;font style=&quot;font-size: 24px;&quot;&gt;Users&lt;/font&gt;" style="whiteSpace=wrap;html=1;fillColor=#66B2FF;" vertex="1" parent="1">
                    <mxGeometry x="120" y="70" width="600" height="40" as="geometry"/>
                </mxCell>
                <mxCell id="4" value="&lt;font style=&quot;font-size: 12px;&quot;&gt;Username:&lt;br&gt;Email Address:&lt;br&gt;&lt;br&gt;&lt;u&gt;&lt;font color=&quot;#000000&quot;&gt;EMAIL USER&lt;/font&gt;&lt;/u&gt;&lt;br&gt;&lt;/font&gt;" style="whiteSpace=wrap;html=1;fillColor=#66B2FF;" vertex="1" parent="1">
                    <mxGeometry x="120" y="150" width="220" height="100" as="geometry"/>
                </mxCell>
                <mxCell id="5" value="&lt;font style=&quot;font-size: 12px;&quot;&gt;Username:&lt;br&gt;Email Address:&lt;br&gt;&lt;br&gt;&lt;u&gt;&lt;font color=&quot;#000000&quot;&gt;EMAIL USER&lt;/font&gt;&lt;/u&gt;&lt;br&gt;&lt;/font&gt;" style="whiteSpace=wrap;html=1;fillColor=#66B2FF;" vertex="1" parent="1">
                    <mxGeometry x="120" y="260" width="220" height="100" as="geometry"/>
                </mxCell>
                <mxCell id="6" value="&lt;font style=&quot;font-size: 12px;&quot;&gt;Username:&lt;br&gt;Email Address:&lt;br&gt;&lt;br&gt;&lt;u&gt;&lt;font color=&quot;#000000&quot;&gt;EMAIL USER&lt;/font&gt;&lt;/u&gt;&lt;br&gt;&lt;/font&gt;" style="whiteSpace=wrap;html=1;fillColor=#66B2FF;" vertex="1" parent="1">
                    <mxGeometry x="120" y="370" width="220" height="100" as="geometry"/>
                </mxCell>
                <mxCell id="7" value="&lt;font style=&quot;font-size: 12px;&quot;&gt;Username:&lt;br&gt;Email Address:&lt;br&gt;&lt;br&gt;&lt;u&gt;&lt;font color=&quot;#000000&quot;&gt;EMAIL USER&lt;/font&gt;&lt;/u&gt;&lt;br&gt;&lt;/font&gt;" style="whiteSpace=wrap;html=1;fillColor=#66B2FF;" vertex="1" parent="1">
                    <mxGeometry x="120" y="480" width="220" height="100" as="geometry"/>
                </mxCell>
            </root>
        </mxGraphModel>
    </diagram>
</mxfile>